<?xml version="1.0" encoding="UTF-8" standalone="no"?><!DOCTYPE svg PUBLIC "-//W3C//DTD SVG 1.1//EN" "http://www.w3.org/Graphics/SVG/1.1/DTD/svg11.dtd">
<svg width="100%" height="100%" viewBox="0 0 1200 1200" version="1.1" xmlns="http://www.w3.org/2000/svg" xmlns:xlink="http://www.w3.org/1999/xlink" xml:space="preserve" style="fill-rule:evenodd;clip-rule:evenodd;stroke-linejoin:round;stroke-miterlimit:1.41421;">
	<g clip-path="url(#_clip1)">
		<path d="M1011.21,518.227c-15.162,-71.923 -50.584,-140.433 -106.48,-196.33c-153.652,-153.651 -402.769,-153.651 -556.42,0c-25.055,25.054 -45.962,52.657 -62.809,81.945c-157.021,6.609 -282.292,135.941 -282.292,294.56c0,162.852 132.01,294.906 294.863,294.906c55.335,0 107.085,-15.292 151.318,-41.815c109.116,54.946 238.448,55.681 348.298,2.548l-99.483,-99.439c-48.683,13.65 -100.519,13.046 -148.986,-1.685c-40.13,-12.181 -77.928,-34.039 -109.677,-65.789c-0.216,-0.172 -0.346,-0.388 -0.519,-0.518c-23.629,37.625 -61.858,65.184 -106.826,74.515c-11.015,2.332 -22.419,3.542 -34.125,3.542c-91.794,0 -166.222,-74.428 -166.222,-166.265c0,-70.282 43.629,-130.325 105.227,-154.645c18.921,-7.473 39.482,-11.577 60.995,-11.577c24.751,0 48.207,5.4 69.331,15.119c8.423,-41.642 26.955,-81.599 55.594,-116.027c5.184,-6.22 10.67,-12.311 16.501,-18.186c103.284,-103.284 270.759,-103.284 374.043,0c32.138,32.139 54.082,70.497 66.221,111.146c14.039,47.257 14.687,97.668 1.814,145.228c19.784,-17.754 45.832,-28.596 74.472,-28.596c21.814,0 42.117,6.35 59.309,17.149c31.447,19.741 52.398,54.687 52.398,94.558c0,57.581 -43.543,104.925 -99.483,111.016l-123.284,-123.241l-101.297,-101.297l-74.817,-74.86l-78.273,78.273l125.185,125.141l225.229,225.229c4.493,0.303 9.028,0.476 13.564,0.476l2.894,0c8.423,-0.044 16.76,-0.562 24.925,-1.426c120.562,-13.132 214.429,-115.249 214.429,-239.311c0,-113.997 -79.266,-209.376 -185.617,-234.344" style="fill-rule:nonzero;"/>
	</g>
</svg>